<?xml version="1.0" encoding="UTF-8" standalone="no"?>
<!-- Created with Inkscape (http://www.inkscape.org/) -->

<svg
   width="120"
   height="120"
   viewBox="0 0 31.749999 31.75"
   version="1.1"
   id="svg1"
   inkscape:version="1.4 (e7c3feb100, 2024-10-09)"
   sodipodi:docname="18b_circle_silver.svg"
   xmlns:inkscape="http://www.inkscape.org/namespaces/inkscape"
   xmlns:sodipodi="http://sodipodi.sourceforge.net/DTD/sodipodi-0.dtd"
   xmlns="http://www.w3.org/2000/svg"
   xmlns:svg="http://www.w3.org/2000/svg">
  <sodipodi:namedview
     id="namedview1"
     pagecolor="#ffffff"
     bordercolor="#000000"
     borderopacity="0.25"
     inkscape:showpageshadow="2"
     inkscape:pageopacity="0.0"
     inkscape:pagecheckerboard="0"
     inkscape:deskcolor="#d1d1d1"
     inkscape:document-units="px"
     inkscape:zoom="3.9411336"
     inkscape:cx="71.045549"
     inkscape:cy="60.26185"
     inkscape:window-width="1443"
     inkscape:window-height="792"
     inkscape:window-x="174"
     inkscape:window-y="120"
     inkscape:window-maximized="0"
     inkscape:current-layer="g849" />
  <defs
     id="defs1" />
  <g
     inkscape:label="Layer 1"
     inkscape:groupmode="layer"
     id="layer1">
    <g
       id="g849"
       transform="matrix(0.90000003,0,0,0.90000003,-18.000002,-17.565668)"
       inkscape:label="circle point_of_interest_3"
       style="display:inline"
       inkscape:highlight-color="#ff0123">
      <circle
         style="fill:#995c00;fill-opacity:1;stroke-width:0.466694"
         id="circle848"
         cx="37.638889"
         cy="37.156296"
         r="17.638887" />
      <circle
         style="display:inline;fill:#331f00;fill-opacity:1;stroke-width:0.388913"
         id="circle1"
         cx="37.638889"
         cy="37.156296"
         r="14.699074" />
      <path
         d="m 32.67133,22.470651 c -2.516965,0.235294 -4.647349,1.943391 -5.420496,4.346888 -0.481117,1.495886 -0.365578,3.172465 0.31305,4.590612 0.119775,0.250012 0.495825,0.865594 1.743797,2.863624 0.873994,1.399238 1.594631,2.558972 1.600931,2.577881 0.0084,0.0169 0.0018,0.03146 -0.0098,0.03146 -0.0126,0 -0.161764,0.01894 -0.334058,0.04406 -1.399238,0.195384 -2.605201,0.619782 -3.456077,1.216443 -0.235312,0.163877 -0.626101,0.548364 -0.747946,0.735358 -0.226913,0.35085 -0.317251,0.638681 -0.317251,1.029469 0,0.30884 0.0504,0.529435 0.186995,0.808865 0.575653,1.176536 2.506444,1.98962 5.328038,2.245932 2.369889,0.216396 4.943581,-0.0462 6.586532,-0.674408 1.212261,-0.460117 1.939191,-1.069388 2.189203,-1.834144 0.08186,-0.254214 0.105035,-0.649192 0.05254,-0.907613 -0.180688,-0.865607 -0.979062,-1.575726 -2.329982,-2.067351 -0.441206,-0.159676 -1.184944,-0.361361 -1.216464,-0.329851 -0.0084,0.0098 -0.258412,0.403388 -0.552542,0.878214 -0.369771,0.590362 -0.529455,0.863483 -0.512645,0.873993 0.01474,0.0056 0.11347,0.0293 0.216394,0.04826 0.876103,0.165984 1.913991,0.544154 2.327879,0.848794 l 0.128203,0.0945 -0.08624,0.0757 c -0.266821,0.237412 -0.911802,0.512635 -1.64925,0.705929 -1.65766,0.432796 -3.916192,0.521034 -5.846983,0.229002 -1.182844,-0.178584 -2.271142,-0.542052 -2.743857,-0.916022 l -0.111359,-0.08606 0.0841,-0.07354 c 0.331951,-0.28783 1.254263,-0.638681 2.214413,-0.842483 0.476926,-0.100824 1.542104,-0.250013 1.607232,-0.224805 0.0126,0.0046 0.31095,0.476925 0.661809,1.05048 0.35086,0.573563 0.642901,1.042078 0.649201,1.042078 0.0056,0 1.254273,-2.061047 2.771175,-4.580102 1.760607,-2.922441 2.808996,-4.683058 2.895133,-4.861633 0.210094,-0.439096 0.390778,-0.979051 0.489526,-1.472785 0.159675,-0.789955 0.155464,-1.666059 -0.0084,-2.481226 -0.189084,-0.93494 -0.649192,-1.907699 -1.264773,-2.674547 -0.222713,-0.277322 -0.726938,-0.775257 -0.99376,-0.981151 -0.934921,-0.722729 -1.926581,-1.142925 -3.069517,-1.300491 -0.289922,-0.03986 -1.084097,-0.05674 -1.374019,-0.0293 z m 1.191244,2.945551 c 0.993758,0.260512 1.703878,0.972733 1.9644,1.964411 0.0715,0.273112 0.09025,0.781547 0.03986,1.069378 -0.197493,1.132416 -1.086206,2.021129 -2.203912,2.201813 -0.670202,0.109246 -1.35722,-0.04406 -1.937091,-0.428597 -0.195394,-0.128203 -0.521035,-0.445416 -0.666011,-0.6471 -0.579862,-0.806766 -0.6618,-1.869854 -0.216393,-2.764868 0.254203,-0.508432 0.720628,-0.96434 1.239562,-1.212261 0.403379,-0.191194 0.71013,-0.254212 1.208064,-0.243712 0.310941,0.0056 0.399169,0.01474 0.571462,0.06094 z"
         id="path848"
         style="display:none;fill:#ffcccc;fill-opacity:1;stroke:none;stroke-width:0.00210097" />
      <text
         xml:space="preserve"
         style="font-weight:700;font-size:7.9375px;line-height:1.03;font-family:Monda, Sarabun, Hahmlet;-inkscape-font-specification:'Sarabun, Bold';text-align:center;text-anchor:middle;display:none;fill:#050403;fill-opacity:1;stroke-width:0.999904;stroke-dasharray:none"
         x="33.258236"
         y="36.793953"
         id="text849"
         inkscape:label="code"><tspan
           sodipodi:role="line"
           style="font-size:7.9375px;text-align:center;text-anchor:middle;fill:#050403;fill-opacity:1;stroke-width:0.999904;stroke-dasharray:none"
           x="0"
           y="0"
           id="tspan849">1</tspan></text>
    </g>
  </g>
</svg>
