<?xml version="1.0" encoding="UTF-8" standalone="no"?>
<!-- Created with Inkscape (http://www.inkscape.org/) -->

<svg
   width="120"
   height="120"
   viewBox="0 0 31.749999 31.75"
   version="1.1"
   id="svg1"
   inkscape:version="1.4 (e7c3feb100, 2024-10-09)"
   sodipodi:docname="19a_circle_busterminal.svg"
   xmlns:inkscape="http://www.inkscape.org/namespaces/inkscape"
   xmlns:sodipodi="http://sodipodi.sourceforge.net/DTD/sodipodi-0.dtd"
   xmlns="http://www.w3.org/2000/svg"
   xmlns:svg="http://www.w3.org/2000/svg">
  <sodipodi:namedview
     id="namedview1"
     pagecolor="#ffffff"
     bordercolor="#000000"
     borderopacity="0.25"
     inkscape:showpageshadow="2"
     inkscape:pageopacity="0.0"
     inkscape:pagecheckerboard="0"
     inkscape:deskcolor="#d1d1d1"
     inkscape:document-units="px"
     inkscape:zoom="1.3934012"
     inkscape:cx="133.48633"
     inkscape:cy="146.40436"
     inkscape:window-width="1443"
     inkscape:window-height="793"
     inkscape:window-x="174"
     inkscape:window-y="120"
     inkscape:window-maximized="0"
     inkscape:current-layer="g849" />
  <defs
     id="defs1" />
  <g
     inkscape:label="Layer 1"
     inkscape:groupmode="layer"
     id="layer1">
    <g
       id="g849"
       transform="matrix(0.90000003,0,0,0.90000003,-18.000002,-17.565668)"
       inkscape:label="circle point_of_interest_3"
       style="display:inline"
       inkscape:highlight-color="#ff0123">
      <path
         d="m 32.67133,22.470651 c -2.516965,0.235294 -4.647349,1.943391 -5.420496,4.346888 -0.481117,1.495886 -0.365578,3.172465 0.31305,4.590612 0.119775,0.250012 0.495825,0.865594 1.743797,2.863624 0.873994,1.399238 1.594631,2.558972 1.600931,2.577881 0.0084,0.0169 0.0018,0.03146 -0.0098,0.03146 -0.0126,0 -0.161764,0.01894 -0.334058,0.04406 -1.399238,0.195384 -2.605201,0.619782 -3.456077,1.216443 -0.235312,0.163877 -0.626101,0.548364 -0.747946,0.735358 -0.226913,0.35085 -0.317251,0.638681 -0.317251,1.029469 0,0.30884 0.0504,0.529435 0.186995,0.808865 0.575653,1.176536 2.506444,1.98962 5.328038,2.245932 2.369889,0.216396 4.943581,-0.0462 6.586532,-0.674408 1.212261,-0.460117 1.939191,-1.069388 2.189203,-1.834144 0.08186,-0.254214 0.105035,-0.649192 0.05254,-0.907613 -0.180688,-0.865607 -0.979062,-1.575726 -2.329982,-2.067351 -0.441206,-0.159676 -1.184944,-0.361361 -1.216464,-0.329851 -0.0084,0.0098 -0.258412,0.403388 -0.552542,0.878214 -0.369771,0.590362 -0.529455,0.863483 -0.512645,0.873993 0.01474,0.0056 0.11347,0.0293 0.216394,0.04826 0.876103,0.165984 1.913991,0.544154 2.327879,0.848794 l 0.128203,0.0945 -0.08624,0.0757 c -0.266821,0.237412 -0.911802,0.512635 -1.64925,0.705929 -1.65766,0.432796 -3.916192,0.521034 -5.846983,0.229002 -1.182844,-0.178584 -2.271142,-0.542052 -2.743857,-0.916022 l -0.111359,-0.08606 0.0841,-0.07354 c 0.331951,-0.28783 1.254263,-0.638681 2.214413,-0.842483 0.476926,-0.100824 1.542104,-0.250013 1.607232,-0.224805 0.0126,0.0046 0.31095,0.476925 0.661809,1.05048 0.35086,0.573563 0.642901,1.042078 0.649201,1.042078 0.0056,0 1.254273,-2.061047 2.771175,-4.580102 1.760607,-2.922441 2.808996,-4.683058 2.895133,-4.861633 0.210094,-0.439096 0.390778,-0.979051 0.489526,-1.472785 0.159675,-0.789955 0.155464,-1.666059 -0.0084,-2.481226 -0.189084,-0.93494 -0.649192,-1.907699 -1.264773,-2.674547 -0.222713,-0.277322 -0.726938,-0.775257 -0.99376,-0.981151 -0.934921,-0.722729 -1.926581,-1.142925 -3.069517,-1.300491 -0.289922,-0.03986 -1.084097,-0.05674 -1.374019,-0.0293 z m 1.191244,2.945551 c 0.993758,0.260512 1.703878,0.972733 1.9644,1.964411 0.0715,0.273112 0.09025,0.781547 0.03986,1.069378 -0.197493,1.132416 -1.086206,2.021129 -2.203912,2.201813 -0.670202,0.109246 -1.35722,-0.04406 -1.937091,-0.428597 -0.195394,-0.128203 -0.521035,-0.445416 -0.666011,-0.6471 -0.579862,-0.806766 -0.6618,-1.869854 -0.216393,-2.764868 0.254203,-0.508432 0.720628,-0.96434 1.239562,-1.212261 0.403379,-0.191194 0.71013,-0.254212 1.208064,-0.243712 0.310941,0.0056 0.399169,0.01474 0.571462,0.06094 z"
         id="path848"
         style="display:none;fill:#ffcccc;fill-opacity:1;stroke:none;stroke-width:0.00210097" />
      <text
         xml:space="preserve"
         style="font-weight:700;font-size:7.9375px;line-height:1.03;font-family:Monda, Sarabun, Hahmlet;-inkscape-font-specification:'Sarabun, Bold';text-align:center;text-anchor:middle;display:none;fill:#050403;fill-opacity:1;stroke-width:0.999904;stroke-dasharray:none"
         x="33.258236"
         y="36.793953"
         id="text849"
         inkscape:label="code"><tspan
           sodipodi:role="line"
           style="font-size:7.9375px;text-align:center;text-anchor:middle;fill:#050403;fill-opacity:1;stroke-width:0.999904;stroke-dasharray:none"
           x="0"
           y="0"
           id="tspan849">1</tspan></text>
      <g
         transform="matrix(0.13029516,0,0,0.13020829,17.735525,19.204701)"
         id="g41"
         inkscape:label="circle Example_Bus_Terminal https://commons.wikimedia.org/wiki/File:Victoria_bus_logo.svg"
         style="display:inline">
        <ellipse
           style="display:inline;fill:#eb8200;fill-opacity:1;stroke-width:0.322509"
           id="ellipse38"
           cx="151.44904"
           cy="138.89488"
           rx="135.37637"
           ry="135.46672"
           transform="translate(1.0621611e-4,-4.6552399e-5)" />
        <ellipse
           style="fill:#ffffff;fill-opacity:1;stroke-width:0.268757"
           id="ellipse39"
           cx="151.44899"
           cy="138.89482"
           rx="112.81359"
           ry="112.88888" />
        <path
           style="display:inline;fill:#331d00;fill-opacity:1;stroke-width:0;stroke-dasharray:none"
           d="M 145.42064,251.59478 C 133.1427,250.95723 119.87862,247.97197 108.4774,243.28019 102.27354,240.7272 94.340621,236.48205 88.704538,232.69913 71.211897,220.95815 57.022189,204.23367 48.51578,185.33132 43.324072,173.79466 40.275889,162.20757 38.921239,148.85951 38.494272,144.65239 38.558064,132.31229 39.029972,127.82455 40.908531,109.96013 46.451397,93.837704 55.900355,78.754096 65.540864,63.364697 79.870488,49.672024 95.751246,40.674585 99.146405,38.751014 105.84351,35.509384 109.27978,34.1263 c 24.95482,-10.0442 53.08062,-10.798854 78.4939,-2.106098 16.58898,5.674356 31.26692,14.867353 43.66776,27.349724 8.84548,8.903634 15.84736,18.738223 21.33094,29.960648 2.54976,5.21823 4.05188,8.890634 5.80296,14.187226 5.27112,15.94379 6.89216,32.62455 4.80492,49.44351 -2.7288,21.9885 -11.81568,42.40178 -26.54216,59.62567 -2.76304,3.23162 -8.38603,8.8709 -11.6167,11.65036 -19.41185,16.70071 -42.81998,26.04629 -68.57395,27.37781 -4.44561,0.22985 -6.4788,0.22617 -11.22681,-0.0204 z m -25.1853,-39.48423 c 1.92307,-0.89991 3.33083,-2.28499 4.2863,-4.21718 l 0.78372,-1.58488 0.0698,-4.79724 0.0698,-4.79722 h 25.10235 25.10234 l 0.0698,4.78545 0.0698,4.78545 0.66996,1.41425 c 0.93099,1.96526 2.30458,3.36467 4.2431,4.32287 1.51661,0.74965 1.6775,0.78346 3.70016,0.77788 1.68511,-0.005 2.34959,-0.10048 3.27154,-0.47178 1.58418,-0.63804 3.07242,-1.82362 4.0151,-3.19858 1.34334,-1.95936 1.49787,-2.70804 1.61225,-7.81156 l 0.10189,-4.54622 2.76222,-0.11821 c 3.21052,-0.1374 4.64658,-0.46998 6.96922,-1.61399 4.44986,-2.19179 7.60097,-6.53387 8.29007,-11.42331 0.12526,-0.88875 -0.31417,-17.44107 -1.36389,-51.37439 -1.43668,-46.442921 -1.57915,-50.181782 -1.97003,-51.703065 -0.80518,-3.133683 -2.70641,-6.177559 -5.01857,-8.034794 -1.63521,-1.313472 -4.66011,-2.783817 -6.50897,-3.163878 -1.32563,-0.272502 -7.33723,-0.305956 -46.38209,-0.258103 l -44.85907,0.05502 -1.6828,0.573076 c -2.38063,0.810724 -4.159242,1.917387 -6.009434,3.739084 -2.486325,2.448039 -3.909783,5.220321 -4.389566,8.548951 -0.114367,0.793463 -0.893934,23.765279 -1.732359,51.048479 -1.500983,48.84319 -1.518716,49.63352 -1.153666,51.40701 1.299166,6.3115 6.381466,11.13218 12.699495,12.04573 0.78481,0.11349 2.14817,0.2082 3.02969,0.2105 l 1.60274,0.004 0.10408,4.5751 c 0.0915,4.02338 0.15869,4.7173 0.55704,5.75418 1.02273,2.66203 2.86938,4.48416 5.46836,5.39575 2.00718,0.70402 4.484,0.57728 6.41961,-0.3285 z M 103.98379,187.8644 c -2.24145,-0.44343 -4.266085,-2.29218 -4.973585,-4.5415 -0.33235,-1.05663 -0.33345,-1.81863 -0.01717,-11.90635 0.185842,-5.92761 0.33705,-11.08511 0.336025,-11.46111 l -0.0017,-0.68363 h 51.41159 51.41158 l 0.12098,1.73538 c 0.10823,1.55236 0.4944,13.96571 0.60366,19.40475 0.0571,2.84151 -0.34435,4.00372 -1.93006,5.58776 -0.74069,0.73991 -1.56505,1.32451 -2.22758,1.57971 -1.02594,0.39516 -2.19011,0.40587 -47.43382,0.43581 -25.51015,0.0169 -46.79503,-0.051 -47.29975,-0.15082 z m 14.36446,-5.55973 c 4.707,-0.99715 7.7624,-5.68977 6.76853,-10.39542 -0.3966,-1.87781 -1.32498,-3.5059 -2.71589,-4.7629 -4.42521,-3.99919 -11.30143,-2.61433 -13.96656,2.81286 -0.54456,1.10892 -0.58798,1.38376 -0.58798,3.72154 0,2.36473 0.0389,2.60392 0.61694,3.78629 1.17842,2.4107 3.5863,4.29498 6.21942,4.86698 1.54624,0.3359 1.95692,0.33262 3.66554,-0.0293 z m -3.26882,-4.4296 c -1.63706,-0.50417 -3.12892,-2.50399 -3.12892,-4.19432 0,-2.4958 2.67559,-4.79958 5.14423,-4.42939 2.0606,0.30901 3.89846,2.39716 3.89846,4.42939 0,1.83775 -1.52523,3.78435 -3.38252,4.31701 -0.92012,0.26389 -1.34242,0.24343 -2.53125,-0.12269 z m 71.03091,4.51557 c 1.83319,-0.33776 3.41001,-1.16748 4.73301,-2.49048 2.00955,-2.00954 2.88586,-4.67396 2.48322,-7.55011 -0.25857,-1.84695 -1.10208,-3.50758 -2.48322,-4.88871 -5.13498,-5.13498 -13.79449,-2.28693 -14.99041,4.93025 -0.73078,4.4101 2.38127,8.94636 6.79426,9.90366 1.7007,0.36892 1.94241,0.37558 3.46314,0.0954 z m -2.87784,-4.47758 c -1.24322,-0.44427 -2.01038,-1.11941 -2.5871,-2.27672 -0.70335,-1.41143 -0.69979,-2.50689 0.0128,-3.93683 0.64842,-1.30122 1.92595,-2.23584 3.34755,-2.44902 2.12524,-0.3187 4.39917,1.26937 4.91873,3.43516 0.53345,2.22366 -0.81987,4.54493 -3.03914,5.21283 -1.22075,0.36739 -1.65883,0.3698 -2.65283,0.0146 z m -82.81476,-51.92908 c 0.42626,-13.44922 0.78123,-24.76077 0.78881,-25.13677 l 0.0138,-0.68363 h 23.55915 23.55915 v 25.13678 25.13676 h -24.34796 l -24.347969,1e-5 z m 52.33824,-0.68452 v -25.13768 l 23.82209,0.0535 23.82208,0.0535 0.65876,21.24531 c 0.36232,11.68491 0.72259,22.9728 0.8006,25.08418 l 0.14186,3.83887 h -24.6227 -24.62269 z M 101.57456,87.595194 c 0.0611,-2.385209 0.21554,-4.359749 0.39079,-4.995799 0.6192,-2.247161 2.19545,-3.892396 4.4213,-4.614753 0.94197,-0.305702 5.12474,-0.331874 44.7917,-0.280237 l 43.75271,0.05692 0.97233,0.449585 c 1.3464,0.62255 2.64081,1.849913 3.28305,3.113004 0.58702,1.154507 0.85694,3.613256 0.88472,8.059215 l 0.0134,2.156084 H 150.7791 101.47359 Z"
           id="path39" />
      </g>
    </g>
  </g>
</svg>
